<svg version="1.2" xmlns="http://www.w3.org/2000/svg" viewBox="0 0 1024 1024" width="1024" height="1024">
&#x9;
&#x9;<path id="Ellipse 3 copy" fill-rule="evenodd" class="s0" d="m893.31 405.05c-61.58-150.02-209.09-255.68-381.31-255.68-172.22 0-319.73 105.66-381.31 255.68l-95.7-39.23c77.02-187.66 261.58-319.82 477.01-319.82 215.43 0 399.98 132.16 477.01 319.82zm-381.31-152.11c128.92 0 239.35 79.1 285.45 191.4l-94.25 38.64c-30.87-75.22-104.84-128.2-191.2-128.2-86.36 0-160.32 52.98-191.2 128.2l-94.25-38.64c46.1-112.3 156.53-191.4 285.45-191.4zm243.49 466.41l-241.94 259.65-243.26-261.06 241.94-259.65zm-339.19-2.1l97.89 105.04 95.28-102.25-97.89-105.05z"></path>
</svg>